<svg version="1.1" id="Layer_1" xmlns="http://www.w3.org/2000/svg" xmlns:xlink="http://www.w3.org/1999/xlink" x="0px" y="0px"
	 width="100%" viewBox="0 0 5778 5140" enable-background="new 0 0 5778 5140" xml:space="preserve">
<path fill="#FFFFFF" opacity="1.000000" stroke="none" 
	d="
M4220.000000,5144.000000 
	C2815.014893,5144.000000 1410.029907,5144.000000 4.000000,5144.000000 
	C4.000000,4334.549316 4.000000,3525.098389 5.470338,2713.741211 
	C14.604043,2715.657471 22.492060,2719.090088 29.897306,2723.360107 
	C154.502090,2795.214600 279.037354,2867.189209 403.606354,2939.105469 
	C761.726990,3145.855469 1119.856567,3352.590576 1477.980835,3559.334473 
	C1507.885742,3576.598389 1537.775757,3593.887939 1569.640015,3612.302490 
	C2453.852051,3101.958252 3339.389160,2590.511963 4225.299316,2079.148193 
	C4590.363281,2289.918701 4954.713379,2500.277344 5318.937012,2710.562744 
	C5318.937012,3132.084717 5318.937012,3552.547852 5318.937012,3973.632080 
	C4954.300781,4184.154297 4589.946289,4394.513672 4226.309082,4604.458496 
	C4196.907227,4589.918945 3146.266602,3982.573242 3132.468750,3972.252197 
	C3132.296631,3971.613525 3131.973877,3970.975098 3131.973389,3970.336426 
	C3131.838135,3732.367188 3131.724854,3494.398193 3131.599609,3256.428955 
	C3131.599365,3255.769287 3131.463623,3255.103760 3131.338135,3254.451416 
	C3131.218018,3253.825684 3131.197021,3253.069092 3130.824219,3252.634521 
	C3130.427002,3252.171387 3129.667969,3252.018555 3127.632324,3251.041504 
	C3105.697998,3261.234619 3084.765869,3275.265869 3062.888672,3287.523193 
	C3040.236084,3300.215088 3017.893799,3313.460449 2995.404785,3326.445068 
	C2973.487793,3339.099854 2951.548584,3351.716553 2929.635498,3364.377686 
	C2907.151123,3377.368896 2884.702637,3390.422363 2862.208252,3403.395996 
	C2840.288330,3416.038086 2818.315186,3428.587646 2796.393066,3441.225586 
	C2773.893555,3454.197021 2751.364502,3467.119629 2728.964844,3480.261719 
	C2707.265869,3492.992432 2685.114746,3504.988281 2664.175781,3518.065430 
	C2664.175781,3760.641602 2664.175781,4001.851074 2664.175781,4243.671387 
	C2669.352295,4246.823242 2674.373291,4250.020996 2679.523926,4252.995605 
	C2980.521484,4426.837891 3281.523682,4600.672852 3582.538574,4774.485352 
	C3790.716309,4894.690918 3998.917236,5014.856934 4207.074219,5135.099121 
	C4211.589844,5137.707520 4215.700684,5141.017090 4220.000000,5144.000000 
z"/>
<path fill="#FFFFFF" opacity="1.000000" stroke="none" 
	d="
M1572.000000,4.000000 
	C2975.652100,4.000000 4379.304199,4.000000 5784.000000,4.000000 
	C5784.000000,814.783875 5784.000000,1625.568237 5782.857910,2437.442627 
	C5776.155762,2434.910400 5770.750000,2431.022461 5765.013184,2427.706055 
	C5672.888184,2374.446533 5580.727051,2321.250488 5488.562988,2268.058838 
	C5358.914551,2193.232910 5229.244141,2118.443115 5099.605957,2043.598999 
	C4964.773438,1965.755859 4829.966797,1887.868652 4695.150879,1809.996826 
	C4606.465820,1758.770996 4517.798340,1707.514404 4429.097168,1656.317017 
	C4365.664062,1619.703979 4302.194336,1583.155029 4238.715332,1546.620728 
	C4234.198242,1544.021240 4229.475586,1541.780151 4224.437500,1539.158691 
	C3781.709473,1794.791992 3339.470215,2050.163818 2897.210693,2305.500000 
	C2454.926270,2560.850830 2012.621338,2816.166016 1569.786987,3071.807617 
	C1285.940308,2907.932373 1002.242859,2744.172607 718.578979,2580.354736 
	C638.436096,2534.071533 558.390991,2487.619141 478.317749,2441.215820 
	C477.782654,2440.906006 477.449097,2440.213623 477.080933,2439.660156 
	C476.723297,2439.122803 476.442657,2438.533936 476.135376,2437.967773 
	C476.142548,2018.078491 476.142548,1598.189331 476.142548,1177.327026 
	C840.422485,967.011536 1204.765381,756.659668 1569.725708,545.951416 
	C1934.619141,756.622131 2298.963135,966.975525 2663.670654,1177.538940 
	C2663.670654,1185.529297 2663.670654,1192.833862 2663.670654,1200.138428 
	C2663.670654,1424.769287 2663.663330,1649.400146 2663.703613,1874.031006 
	C2663.704834,1881.340698 2664.192627,1888.650269 2664.312988,1897.381592 
	C2668.323242,1902.544434 2670.691650,1899.395996 2674.479980,1896.265625 
	C2821.107910,1812.206299 2966.380615,1728.373657 3111.640137,1644.518799 
	C3117.394531,1641.196777 3123.033691,1637.673828 3128.701904,1634.204468 
	C3129.240479,1633.874878 3129.652344,1633.293701 3130.034424,1632.765381 
	C3130.422119,1632.228882 3130.700439,1631.613159 3130.963623,1631.144165 
	C3130.963623,1389.961914 3130.963623,1148.892334 3130.963623,907.324036 
	C3124.445801,903.408630 3118.273438,899.573914 3111.984131,895.941162 
	C2939.185059,796.125305 2766.378174,696.322327 2593.561523,596.536804 
	C2555.518799,574.570801 2517.417969,552.706116 2479.371338,530.746704 
	C2292.700195,423.005768 2106.033691,315.256744 1919.376465,207.491592 
	C1871.533691,179.869888 1823.745117,152.154053 1775.905762,124.526360 
	C1712.504517,87.911499 1649.056519,51.377712 1585.703247,14.680107 
	C1580.714966,11.790576 1574.583130,10.088248 1572.000000,4.000000 
z"/>
<path fill="#FFFFFF" opacity="1.000000" stroke="none" 
	d="
M2664.453613,1895.959961 
	C2664.192627,1888.650269 2663.704834,1881.340698 2663.703613,1874.031006 
	C2663.663330,1649.400146 2663.670654,1424.769287 2663.670654,1200.138428 
	C2663.670654,1192.833862 2663.670654,1185.529297 2663.670654,1177.538940 
	C2298.963135,966.975525 1934.619141,756.622131 1569.725708,545.951416 
	C1204.765381,756.659668 840.422485,967.011536 476.142548,1177.327026 
	C476.142548,1598.189331 476.142548,2018.078491 476.135376,2437.967773 
	C476.442657,2438.533936 476.723297,2439.122803 477.080933,2439.660156 
	C477.449097,2440.213623 477.782654,2440.906006 478.317749,2441.215820 
	C558.390991,2487.619141 638.436096,2534.071533 718.578979,2580.354736 
	C1002.242859,2744.172607 1285.940308,2907.932373 1569.786987,3071.807617 
	C2012.621338,2816.166016 2454.926270,2560.850830 2897.210693,2305.500000 
	C3339.470215,2050.163818 3781.709473,1794.791992 4224.437500,1539.158691 
	C4229.475586,1541.780151 4234.198242,1544.021240 4238.715332,1546.620728 
	C4302.194336,1583.155029 4365.664062,1619.703979 4429.097168,1656.317017 
	C4517.798340,1707.514404 4606.465820,1758.770996 4695.150879,1809.996826 
	C4829.966797,1887.868652 4964.773438,1965.755859 5099.605957,2043.598999 
	C5229.244141,2118.443115 5358.914551,2193.232910 5488.562988,2268.058838 
	C5580.727051,2321.250488 5672.888184,2374.446533 5765.013184,2427.706055 
	C5770.750000,2431.022461 5776.155762,2434.910400 5782.857910,2439.266357 
	C5784.000000,3040.083740 5784.000000,3640.167236 5782.881348,4242.896484 
	C5777.945801,4248.169922 5774.282227,4251.060547 5770.288086,4253.382324 
	C5745.106445,4268.020996 5719.907715,4282.632324 5694.608398,4297.066895 
	C5640.917969,4327.701172 5587.009766,4357.956543 5533.479492,4388.867676 
	C5486.407227,4416.049316 5439.832520,4444.090820 5392.830566,4471.395508 
	C5370.461426,4484.390137 5347.410156,4496.210449 5325.025391,4509.178711 
	C5294.101074,4527.093750 5263.676270,4545.872559 5232.734863,4563.756836 
	C5204.000488,4580.365234 5174.672852,4595.949219 5145.955078,4612.584473 
	C5099.494141,4639.497559 5053.417480,4667.073730 5006.979980,4694.026855 
	C4984.029785,4707.347656 4960.440430,4719.565918 4937.488281,4732.882324 
	C4903.698242,4752.486816 4870.362305,4772.874023 4836.562012,4792.461426 
	C4810.150391,4807.767090 4783.138184,4822.039062 4756.729004,4837.350098 
	C4715.455566,4861.277344 4674.536621,4885.813965 4633.334473,4909.865234 
	C4598.981934,4929.917480 4564.500977,4949.750977 4529.957031,4969.471680 
	C4510.941895,4980.327637 4491.489746,4990.425781 4472.565430,5001.434570 
	C4430.177246,5026.091309 4388.058105,5051.210449 4345.710938,5075.938477 
	C4311.362793,5095.994141 4276.812012,5115.701172 4242.445801,5135.725098 
	C4238.645996,5137.938477 4235.466797,5141.215820 4232.000000,5144.000000 
	C4229.000000,5144.000000 4226.000000,5144.000000 4221.500000,5144.000000 
	C4215.700684,5141.017090 4211.589844,5137.707520 4207.074219,5135.099121 
	C3998.917236,5014.856934 3790.716309,4894.690918 3582.538574,4774.485352 
	C3281.523682,4600.672852 2980.521484,4426.837891 2679.523926,4252.995605 
	C2674.373291,4250.020996 2669.352295,4246.823242 2664.175781,4243.671387 
	C2664.175781,4001.851074 2664.175781,3760.641602 2664.175781,3518.065430 
	C2685.114746,3504.988281 2707.265869,3492.992432 2728.964844,3480.261719 
	C2751.364502,3467.119629 2773.893555,3454.197021 2796.393066,3441.225586 
	C2818.315186,3428.587646 2840.288330,3416.038086 2862.208252,3403.395996 
	C2884.702637,3390.422363 2907.151123,3377.368896 2929.635498,3364.377686 
	C2951.548584,3351.716553 2973.487793,3339.099854 2995.404785,3326.445068 
	C3017.893799,3313.460449 3040.236084,3300.215088 3062.888672,3287.523193 
	C3084.765869,3275.265869 3105.697998,3261.234619 3127.632324,3251.041504 
	C3129.667969,3252.018555 3130.427002,3252.171387 3130.824219,3252.634521 
	C3131.197021,3253.069092 3131.218018,3253.825684 3131.338135,3254.451416 
	C3131.463623,3255.103760 3131.599365,3255.769287 3131.599609,3256.428955 
	C3131.724854,3494.398193 3131.838135,3732.367188 3131.973389,3970.336426 
	C3131.973877,3970.975098 3132.296631,3971.613525 3132.468750,3972.252197 
	C3146.266602,3982.573242 4196.907227,4589.918945 4226.309082,4604.458496 
	C4589.946289,4394.513672 4954.300781,4184.154297 5318.937012,3973.632080 
	C5318.937012,3552.547852 5318.937012,3132.084717 5318.937012,2710.562744 
	C4954.713379,2500.277344 4590.363281,2289.918701 4225.299316,2079.148193 
	C3339.389160,2590.511963 2453.852051,3101.958252 1569.640015,3612.302490 
	C1537.775757,3593.887939 1507.885742,3576.598389 1477.980835,3559.334473 
	C1119.856567,3352.590576 761.726990,3145.855469 403.606354,2939.105469 
	C279.037354,2867.189209 154.502090,2795.214600 29.897306,2723.360107 
	C22.492060,2719.090088 14.604043,2715.657471 5.470338,2711.917480 
	C4.000000,2110.583008 4.000000,1509.166138 5.212280,906.965698 
	C11.807975,903.718933 17.416750,901.650391 22.537086,898.726440 
	C49.567459,883.291077 76.474983,867.640564 103.424629,852.063782 
	C137.871826,832.153442 172.319092,812.243225 206.765320,792.331116 
	C241.211121,772.419128 275.729126,752.630676 310.078125,732.553101 
	C339.329895,715.454956 368.221588,697.736816 397.574646,680.817078 
	C428.514038,662.982910 459.901337,645.927673 490.928772,628.243958 
	C526.072510,608.214172 561.124695,588.019470 596.046204,567.604980 
	C624.722229,550.841553 653.039368,533.464417 681.714050,516.698608 
	C716.061707,496.615875 750.544861,476.761749 785.109619,457.054596 
	C816.134277,439.365875 847.431030,422.154449 878.458069,404.469849 
	C914.179871,384.109344 949.752808,363.487305 985.361816,342.929199 
	C1018.667969,323.700562 1051.925049,304.386871 1085.224487,285.146545 
	C1145.604370,250.259186 1205.996948,215.394043 1266.389282,180.528305 
	C1301.424316,160.301773 1336.552124,140.234314 1371.483521,119.830315 
	C1400.166870,103.075882 1428.446289,85.625641 1457.226807,69.042725 
	C1487.016113,51.878525 1517.284302,35.546581 1547.136230,18.488781 
	C1554.452026,14.308422 1562.909790,11.492116 1568.000000,4.000000 
	C1568.000000,4.000000 1570.000000,4.000000 1571.000000,4.000000 
	C1574.583130,10.088248 1580.714966,11.790576 1585.703247,14.680107 
	C1649.056519,51.377712 1712.504517,87.911499 1775.905762,124.526360 
	C1823.745117,152.154053 1871.533691,179.869888 1919.376465,207.491592 
	C2106.033691,315.256744 2292.700195,423.005768 2479.371338,530.746704 
	C2517.417969,552.706116 2555.518799,574.570801 2593.561523,596.536804 
	C2766.378174,696.322327 2939.185059,796.125305 3111.984131,895.941162 
	C3118.273438,899.573914 3124.445801,903.408630 3130.963623,907.324036 
	C3130.963623,1148.892334 3130.963623,1389.961914 3130.963623,1631.144165 
	C3130.700439,1631.613159 3130.422119,1632.228882 3130.034424,1632.765381 
	C3129.652344,1633.293701 3129.240479,1633.874878 3128.701904,1634.204468 
	C3123.033691,1637.673828 3117.394531,1641.196777 3111.640137,1644.518799 
	C2966.380615,1728.373657 2821.107910,1812.206299 2673.044189,1896.060547 
	C2668.318359,1896.038940 2666.385986,1895.999512 2664.453613,1895.959961 
z"/>
<path fill="#FFFFFF" opacity="1.000000" stroke="none" 
	d="
M1566.125366,4.000000 
	C1562.909790,11.492116 1554.452026,14.308422 1547.136230,18.488781 
	C1517.284302,35.546581 1487.016113,51.878525 1457.226807,69.042725 
	C1428.446289,85.625641 1400.166870,103.075882 1371.483521,119.830315 
	C1336.552124,140.234314 1301.424316,160.301773 1266.389282,180.528305 
	C1205.996948,215.394043 1145.604370,250.259186 1085.224487,285.146545 
	C1051.925049,304.386871 1018.667969,323.700562 985.361816,342.929199 
	C949.752808,363.487305 914.179871,384.109344 878.458069,404.469849 
	C847.431030,422.154449 816.134277,439.365875 785.109619,457.054596 
	C750.544861,476.761749 716.061707,496.615875 681.714050,516.698608 
	C653.039368,533.464417 624.722229,550.841553 596.046204,567.604980 
	C561.124695,588.019470 526.072510,608.214172 490.928772,628.243958 
	C459.901337,645.927673 428.514038,662.982910 397.574646,680.817078 
	C368.221588,697.736816 339.329895,715.454956 310.078125,732.553101 
	C275.729126,752.630676 241.211121,772.419128 206.765320,792.331116 
	C172.319092,812.243225 137.871826,832.153442 103.424629,852.063782 
	C76.474983,867.640564 49.567459,883.291077 22.537086,898.726440 
	C17.416750,901.650391 11.807975,903.718933 5.212280,905.091064 
	C4.000000,604.213135 4.000000,304.426270 4.000000,4.000000 
	C524.083374,4.000000 1044.167114,4.000000 1566.125366,4.000000 
z"/>
<path fill="#FFFFFF" opacity="1.000000" stroke="none" 
	d="
M4233.874512,5144.000000 
	C4235.466797,5141.215820 4238.645996,5137.938477 4242.445801,5135.725098 
	C4276.812012,5115.701172 4311.362793,5095.994141 4345.710938,5075.938477 
	C4388.058105,5051.210449 4430.177246,5026.091309 4472.565430,5001.434570 
	C4491.489746,4990.425781 4510.941895,4980.327637 4529.957031,4969.471680 
	C4564.500977,4949.750977 4598.981934,4929.917480 4633.334473,4909.865234 
	C4674.536621,4885.813965 4715.455566,4861.277344 4756.729004,4837.350098 
	C4783.138184,4822.039062 4810.150391,4807.767090 4836.562012,4792.461426 
	C4870.362305,4772.874023 4903.698242,4752.486816 4937.488281,4732.882324 
	C4960.440430,4719.565918 4984.029785,4707.347656 5006.979980,4694.026855 
	C5053.417480,4667.073730 5099.494141,4639.497559 5145.955078,4612.584473 
	C5174.672852,4595.949219 5204.000488,4580.365234 5232.734863,4563.756836 
	C5263.676270,4545.872559 5294.101074,4527.093750 5325.025391,4509.178711 
	C5347.410156,4496.210449 5370.461426,4484.390137 5392.830566,4471.395508 
	C5439.832520,4444.090820 5486.407227,4416.049316 5533.479492,4388.867676 
	C5587.009766,4357.956543 5640.917969,4327.701172 5694.608398,4297.066895 
	C5719.907715,4282.632324 5745.106445,4268.020996 5770.288086,4253.382324 
	C5774.282227,4251.060547 5777.945801,4248.169922 5782.881348,4244.771484 
	C5784.000000,4543.785645 5784.000000,4843.571777 5784.000000,5144.000000 
	C5267.916504,5144.000000 4751.833008,5144.000000 4233.874512,5144.000000 
z"/>
<path fill="#FFFFFF" opacity="1.000000" stroke="none" 
	d="
M2664.312988,1897.381714 
	C2666.385986,1895.999512 2668.318359,1896.038940 2671.686523,1896.283447 
	C2670.691650,1899.395996 2668.323242,1902.544434 2664.312988,1897.381714 
z"/>
</svg> 