<svg version="1.1" id="Layer_1" xmlns="http://www.w3.org/2000/svg" xmlns:xlink="http://www.w3.org/1999/xlink" x="0px" y="0px"
	 width="100%" viewBox="0 0 5778 5140" enable-background="new 0 0 5778 5140" xml:space="preserve">
<path fill="#FFFFFF" opacity="1.000000" stroke="none" 
	d="
M4220.000000,5144.000000 
	C2815.014893,5144.000000 1410.029907,5144.000000 4.000000,5144.000000 
	C4.000000,4334.549316 4.000000,3525.098389 5.465787,2713.808105 
	C13.505045,2715.073730 20.299505,2717.787109 26.611784,2721.354004 
	C48.077381,2733.482910 69.379990,2745.900391 90.731850,2758.230469 
	C216.530304,2830.874512 342.319855,2903.534180 468.123230,2976.169922 
	C582.381714,3042.139648 696.664551,3108.067383 810.916809,3174.047852 
	C935.557434,3246.027832 1060.166870,3318.062012 1184.805786,3390.044922 
	C1295.020386,3453.697510 1405.252563,3517.319580 1515.486816,3580.937744 
	C1533.343262,3591.243164 1551.251221,3601.459473 1569.959595,3612.189697 
	C1650.276611,3565.766113 1730.409546,3519.405029 1810.585693,3473.118652 
	C1891.375732,3426.478027 1972.212036,3379.917236 2053.021729,3333.310547 
	C2133.257568,3287.034668 2213.505127,3240.779053 2293.711670,3194.452148 
	C2374.495361,3147.792236 2455.211182,3101.015137 2535.999512,3054.363525 
	C2616.210449,3008.044922 2696.493652,2961.850830 2776.710449,2915.541748 
	C2857.502441,2868.900146 2938.245850,2822.174561 3019.020752,2775.503906 
	C3099.221191,2729.165039 3179.425049,2682.832275 3259.645020,2636.527344 
	C3340.438477,2589.891846 3421.255615,2543.297363 3502.059082,2496.678955 
	C3582.287109,2450.391846 3662.525635,2404.122314 3742.733154,2357.799561 
	C3823.518799,2311.142578 3904.193359,2264.291992 3985.062012,2217.779297 
	C4065.259277,2171.652832 4145.109375,2124.912109 4225.532715,2079.286621 
	C4590.704590,2290.117432 4954.751953,2500.299316 5318.066895,2710.057861 
	C5320.400879,2729.861328 5320.239746,3957.008301 5317.992676,3973.447510 
	C5316.132812,3974.732666 5314.062988,3976.390869 5311.792480,3977.701416 
	C4950.509766,4186.199219 4589.213379,4394.670898 4227.906250,4603.125977 
	C4227.348145,4603.448242 4226.637695,4603.586914 4225.984375,4603.640137 
	C4225.334473,4603.692871 4224.667480,4603.529297 4222.134277,4603.264648 
	C4041.886719,4499.165527 3860.486084,4393.616211 3678.321045,4289.403320 
	C3477.453857,4174.491211 3145.828125,3982.427490 3131.700439,3971.234619 
	C3131.700439,3948.048096 3131.700439,3924.086670 3131.700439,3900.125244 
	C3131.700439,3876.125488 3131.700439,3852.125732 3131.700439,3828.125977 
	C3131.700439,3804.126221 3131.700439,3780.126465 3131.700439,3756.126709 
	C3131.700439,3732.126953 3131.700439,3708.127441 3131.700439,3684.127686 
	C3131.700439,3660.127930 3131.700439,3636.128174 3131.700439,3612.128418 
	C3131.700439,3588.128662 3131.700439,3564.128906 3131.700439,3540.129150 
	C3131.700439,3516.129395 3131.700439,3492.129883 3131.700439,3468.130127 
	C3131.700439,3444.130371 3131.700439,3420.130615 3131.700439,3396.130859 
	C3131.700439,3372.131104 3131.928711,3348.128662 3131.635986,3324.132324 
	C3131.346436,3300.380371 3132.913818,3276.563721 3130.756348,3253.459961 
	C3128.972656,3252.610840 3128.367676,3252.080078 3127.769531,3252.087402 
	C3126.468018,3252.103760 3125.124023,3252.241699 3123.883789,3252.615967 
	C3122.624512,3252.995850 3121.423340,3253.640625 3120.273926,3254.303711 
	C2971.955322,3339.914062 2823.642334,3425.534180 2675.343750,3511.179443 
	C2672.465576,3512.841309 2669.758789,3514.801758 2666.988281,3516.647461 
	C2666.436768,3517.015137 2665.861328,3517.420410 2665.473877,3517.940186 
	C2665.089844,3518.454590 2664.928955,3519.135498 2664.670166,3519.743408 
	C2662.668701,3546.962402 2663.325195,4228.056641 2665.495361,4244.225098 
	C2670.579834,4247.417480 2676.085449,4251.114258 2681.812256,4254.428711 
	C2710.647217,4271.116699 2739.555420,4287.678711 2768.410400,4304.333008 
	C2882.679443,4366.587891 2996.948975,4432.535645 3111.197754,4498.522461 
	C3236.412598,4570.833008 3361.586914,4643.222656 3486.811768,4715.524902 
	C3604.534180,4783.496582 3722.307617,4851.379883 3840.042725,4919.329590 
	C3947.966064,4981.616211 4055.900146,5043.885254 4163.748047,5106.302734 
	C4182.705566,5117.274902 4201.259766,5128.944824 4220.000000,5140.292969 
	z"/>
<!-- Remaining paths omitted for brevity; file is full copy. -->
</svg> 